<svg width="126" height="110" viewBox="0 0 126 110" fill="none" xmlns="http://www.w3.org/2000/svg">
<g id="Layer_1" clip-path="url(#clip0_1_8191)">
<path id="Vector" d="M36.8873 48.9264H41.6175V53.4444H36.8873V48.9264ZM66.7554 53.4444H71.4856V48.9264H66.7554V53.4444ZM12.4873 74.3315H19.2306C26.7837 74.3315 33.4551 71.7887 33.4551 62.0149C33.4551 52.2411 26.7837 49.6983 19.2306 49.6983H12.4873V74.3353V74.3315ZM17.4294 53.5768H20.1842C24.3127 53.5768 28.3012 56.6456 28.3012 62.0111C28.3012 67.3767 24.3127 70.4455 20.1842 70.4455H17.4294V53.5731V53.5768ZM36.8949 74.3315H41.6251V56.1537H36.8949V74.3315ZM58.4001 56.1537V58.6246H58.3282C57.0227 56.5434 55.1495 55.7299 52.7504 55.7299C47.3126 55.7299 45.0535 60.7776 45.0535 65.1556C45.0535 70.0254 47.1007 74.3315 52.4666 74.3315C55.1155 74.3315 57.2308 72.992 58.1125 71.4368H58.1844C58.1844 74.5775 57.9384 78.4976 52.7126 78.4976C51.2292 78.4976 48.8641 77.6878 47.4186 76.9084L47.0288 80.9306C49.2879 81.8842 51.4411 82.168 53.3104 82.168C60.9355 82.168 62.9108 77.51 62.9108 72.5682V56.1575H58.3925L58.4001 56.1537ZM54.0219 70.6611C51.3049 70.6611 49.9993 67.6265 49.9993 65.1556C49.9993 62.3668 51.021 59.404 54.2338 59.404C56.9886 59.404 58.1882 61.9468 58.1882 65.0496C58.1882 68.1524 56.9886 70.6611 54.0219 70.6611ZM66.7554 74.3315H71.4856V56.1537H66.7554V74.3315ZM78.0132 68.86C78.0132 72.4585 80.0604 74.7553 83.7651 74.7553C85.1766 74.7553 86.2702 74.6153 87.2578 74.3315L87.1178 70.5892C86.6221 70.9071 85.8123 71.0812 84.9646 71.0812C83.1634 71.0812 82.7396 69.6357 82.7396 68.0805V59.6084H86.94V56.1499H82.7396V50.9962L78.0094 52.5136V56.1499H74.5167V59.6084H78.0094V68.8562L78.0132 68.86ZM91.1403 61.1636C92.7297 59.9641 94.7428 59.1884 96.7522 59.1884C99.5411 59.1884 100.847 60.176 100.847 63.1047H98.2356C96.2603 63.1047 93.9292 63.2825 92.128 64.1642C90.3268 65.0458 89.0212 66.6351 89.0212 69.3519C89.0212 72.8104 92.162 74.7515 95.3748 74.7515C97.5279 74.7515 99.893 73.6201 100.987 71.6109H101.059C101.093 72.1747 101.093 73.3742 101.27 74.3277H105.437C105.331 72.9163 105.259 71.645 105.225 70.2676C105.191 68.9281 105.153 67.5508 105.153 65.7156V63.3847C105.153 58.0191 102.86 55.7261 97.316 55.7261C95.3029 55.7261 92.8318 56.2558 90.9965 57.1034L91.1366 61.1636H91.1403ZM93.5395 69.0719C93.5395 66.2832 96.6803 65.9313 98.7994 65.9313H100.847C100.847 67.3427 100.635 68.6481 99.859 69.6735C99.1173 70.6611 97.9896 71.2968 96.5403 71.2968C94.845 71.2968 93.5395 70.6271 93.5395 69.0719ZM108.778 74.3315H113.508V47.8594H108.778V74.3315Z" fill="#004062"/>
<g id="Group">
<path id="Vector_2" d="M26.0684 84.9834H39.8691V88.09H29.5989V95.2907H38.9533V98.3973H29.5989V106.514H39.8691V109.62H26.0684V84.9834Z" fill="#004062"/>
<path id="Vector_3" d="M57.0234 84.9834H53.3149L42.7988 109.62H46.5035L49.0124 103.411L50.14 100.516L55.0443 88.3019L59.9523 100.516H52.2932L51.1617 103.411H61.0837L63.5888 109.62H67.4373L57.0234 84.9834Z" fill="#004062"/>
<path id="Vector_4" d="M70.9639 84.9834H74.4945V106.514H84.8024V109.62H70.9676V84.9834H70.9639Z" fill="#004062"/>
<path id="Vector_5" d="M89.7177 88.09H82.0586V84.9834H100.907V88.09H93.2482H89.7177Z" fill="#004062"/>
<path id="Vector_6" d="M17.8005 84.9834V95.2907H6.00919V84.9834H2.48239V95.2907H0V98.3973H2.48239V109.62H6.00919V98.3973H17.8005V109.62H21.3311V84.9834H17.8005Z" fill="#004062"/>
<path id="Vector_7" d="M126 95.2907H123.461V84.9834H119.93V95.2907H108.139V84.9834H104.608V109.62H108.139V98.3973H119.93V109.62H123.461V98.3973H126V95.2907Z" fill="#004062"/>
<path id="Vector_8" d="M93.2484 90.1299H89.7178V109.625H93.2484V90.1299Z" fill="#004062"/>
</g>
<g id="Group_2">
<g id="Clip path group">
<mask id="mask0_1_8191" style="mask-type:luminance" maskUnits="userSpaceOnUse" x="40" y="3" width="46" height="39">
<g id="clippath">
<path id="Vector_9" d="M82.2328 6.5786C77.6616 2.00765 70.2523 2.00765 65.681 6.5786L62.9981 9.26139L60.3151 6.5786C55.7439 2.00765 48.3346 2.00765 43.7634 6.5786C39.1922 11.1496 39.1922 18.5584 43.7634 23.1294L46.4463 25.8122L61.5677 40.9326C62.3586 41.7234 63.6376 41.7234 64.4285 40.9326L79.5498 25.8122L82.2328 23.1294C86.804 18.5584 86.804 11.1496 82.2328 6.5786Z" fill="white"/>
</g>
</mask>
<g mask="url(#mask0_1_8191)">
<g id="Group_3">
<path id="Vector_10" d="M36.9443 -5.69629V20.8061C40.123 17.446 44.0434 14.1124 48.3724 11.002C48.9816 10.5631 49.5984 10.1318 50.2228 9.70417C59.5356 3.31317 70.4452 -1.98807 79.8942 -4.43625C70.6949 -0.379913 60.4475 4.99701 51.99 11.3842C51.3127 11.8951 50.6467 12.4172 49.9958 12.9432C44.3764 17.4574 39.7143 22.4408 36.9481 27.795V36.6417C39.51 29.7513 44.7586 22.3008 52.0733 15.3346C52.7468 14.6951 53.4356 14.0594 54.1432 13.4275C58.0257 9.9577 62.4191 6.63922 67.2438 3.60075C73.5974 -0.39505 80.0682 -3.50541 86.3007 -5.69629H36.9443Z" fill="#2B7434"/>
<path id="Vector_11" d="M80.8627 -2.07102C78.2819 -0.841251 75.6217 0.619333 72.9614 2.26154L72.7458 3.21509C71.6521 3.35887 70.5699 3.85835 69.7222 4.35026C68.6097 5.10325 67.501 5.87895 66.4073 6.6887C62.9562 9.23527 59.6148 12.0581 56.5421 15.0776C56.0653 15.5468 55.5961 16.0198 55.1344 16.4966C54.7901 16.8523 54.4457 17.2117 54.1089 17.575C46.0866 26.1682 40.4937 36.0669 40.891 45.572H45.8066C45.4319 35.8171 49.6475 26.6715 55.6983 19.2626C55.9783 18.922 56.2545 18.5777 56.5421 18.2447C56.5838 18.1955 56.633 18.1463 56.6746 18.0972C59.6375 14.6727 62.9751 11.6494 66.4073 9.15959C68.2426 7.82766 70.1006 6.64708 71.9435 5.63678C69.9833 7.03304 68.1329 8.44065 66.4073 9.88231C62.9524 12.7619 59.9857 15.7625 57.5903 19.0507C57.2876 19.4669 56.9962 19.8907 56.7124 20.3145C56.6557 20.3978 56.5989 20.4772 56.5421 20.5605C52.145 27.2504 50.0297 35.1625 50.8319 45.5758H88.1093V-4.99219C85.8123 -4.25054 83.3716 -3.26673 80.8627 -2.07102Z" fill="#004062"/>
</g>
</g>
</g>
<g id="Clip path group_2">
<mask id="mask1_1_8191" style="mask-type:luminance" maskUnits="userSpaceOnUse" x="40" y="3" width="46" height="39">
<g id="clippath-1">
<path id="Vector_12" d="M82.2328 6.5786C77.6616 2.00765 70.2523 2.00765 65.681 6.5786L62.9981 9.26139L60.3151 6.5786C55.7439 2.00765 48.3346 2.00765 43.7634 6.5786C39.1922 11.1496 39.1922 18.5584 43.7634 23.1294L46.4463 25.8122L61.5677 40.9326C62.3586 41.7234 63.6376 41.7234 64.4285 40.9326L79.5498 25.8122L82.2328 23.1294C86.804 18.5584 86.804 11.1496 82.2328 6.5786Z" fill="white"/>
</g>
</mask>
<g mask="url(#mask1_1_8191)">
<g id="Group_4">
<g id="Clip path group_3">
<mask id="mask2_1_8191" style="mask-type:luminance" maskUnits="userSpaceOnUse" x="40" y="3" width="46" height="39">
<g id="clippath-3">
<g id="Clip path group_4">
<mask id="mask3_1_8191" style="mask-type:luminance" maskUnits="userSpaceOnUse" x="40" y="-5" width="49" height="51">
<g id="clippath-2">
<path id="Vector_13" d="M80.8627 -2.07102C78.2819 -0.841251 75.6217 0.619333 72.9614 2.26154L72.7458 3.21509C71.6521 3.35887 70.5699 3.85835 69.7222 4.35026C68.6097 5.10325 67.501 5.87895 66.4073 6.6887C62.9562 9.23527 59.6148 12.0581 56.5421 15.0776C56.0653 15.5468 55.5961 16.0198 55.1344 16.4966C54.7901 16.8523 54.4457 17.2117 54.1089 17.575C46.0866 26.1682 40.4937 36.0669 40.891 45.572H45.8066C45.4319 35.8171 49.6475 26.6715 55.6983 19.2626C55.9783 18.922 56.2545 18.5777 56.5421 18.2447C56.5838 18.1955 56.633 18.1463 56.6746 18.0972C59.6375 14.6727 62.9751 11.6494 66.4073 9.15959C68.2426 7.82766 70.1006 6.64708 71.9435 5.63678C69.9833 7.03304 68.1329 8.44065 66.4073 9.88231C62.9524 12.7619 59.9857 15.7625 57.5903 19.0507C57.2876 19.4669 56.9962 19.8907 56.7124 20.3145C56.6557 20.3978 56.5989 20.4772 56.5421 20.5605C52.145 27.2504 50.0297 35.1625 50.8319 45.5758H88.1093V-4.99219C85.8123 -4.25054 83.3716 -3.26673 80.8627 -2.07102Z" fill="white"/>
</g>
</mask>
<g mask="url(#mask3_1_8191)">
<path id="Vector_14" d="M82.2328 6.5786C77.6616 2.00765 70.2523 2.00765 65.681 6.5786L62.9981 9.26139L60.3151 6.5786C55.7439 2.00765 48.3346 2.00765 43.7634 6.5786C39.1922 11.1496 39.1922 18.5584 43.7634 23.1294L46.4463 25.8122L61.5677 40.9326C62.3586 41.7234 63.6376 41.7234 64.4285 40.9326L79.5498 25.8122L82.2328 23.1294C86.804 18.5584 86.804 11.1496 82.2328 6.5786Z" fill="white"/>
</g>
</g>
</g>
</mask>
<g mask="url(#mask2_1_8191)">
<g id="Group_5">
<path id="Vector_15" d="M42.5595 4.10352H40.6221V6.04087H42.5595V4.10352Z" fill="#004062"/>
<path id="Vector_16" d="M45.4658 4.10352H43.5283V6.04087H45.4658V4.10352Z" fill="#004062"/>
<path id="Vector_17" d="M48.3759 4.10352H46.4385V6.04087H48.3759V4.10352Z" fill="#004062"/>
<path id="Vector_18" d="M51.2812 4.10352H49.3438V6.04087H51.2812V4.10352Z" fill="#004062"/>
<path id="Vector_19" d="M54.1875 4.10352H52.25V6.04087H54.1875V4.10352Z" fill="#004062"/>
<path id="Vector_20" d="M57.0937 4.10352H55.1562V6.04087H57.0937V4.10352Z" fill="#004062"/>
<path id="Vector_21" d="M60 4.10352H58.0625V6.04087H60V4.10352Z" fill="#004062"/>
<path id="Vector_22" d="M62.9062 4.10352H60.9688V6.04087H62.9062V4.10352Z" fill="#004062"/>
<path id="Vector_23" d="M65.8125 4.10352H63.875V6.04087H65.8125V4.10352Z" fill="#004062"/>
<path id="Vector_24" d="M68.7187 4.10352H66.7812V6.04087H68.7187V4.10352Z" fill="#6C8DA9"/>
<path id="Vector_25" d="M71.6289 4.10352H69.6914V6.04087H71.6289V4.10352Z" fill="#487494"/>
<path id="Vector_26" d="M74.5351 4.10352H72.5977V6.04087H74.5351V4.10352Z" fill="#ACBDCE"/>
<path id="Vector_27" d="M77.4414 4.10352H75.5039V6.04087H77.4414V4.10352Z" fill="#005375"/>
<path id="Vector_28" d="M80.3476 4.10352H78.4102V6.04087H80.3476V4.10352Z" fill="#1F5E7F"/>
<path id="Vector_29" d="M83.2539 4.10352H81.3164V6.04087H83.2539V4.10352Z" fill="#004062"/>
<path id="Vector_30" d="M86.1601 4.10352H84.2227V6.04087H86.1601V4.10352Z" fill="#004062"/>
<path id="Vector_31" d="M42.5595 7.00977H40.6221V8.94712H42.5595V7.00977Z" fill="#004062"/>
<path id="Vector_32" d="M45.4658 7.00977H43.5283V8.94712H45.4658V7.00977Z" fill="#004062"/>
<path id="Vector_33" d="M48.3759 7.00977H46.4385V8.94712H48.3759V7.00977Z" fill="#004062"/>
<path id="Vector_34" d="M51.2812 7.00977H49.3438V8.94712H51.2812V7.00977Z" fill="#004062"/>
<path id="Vector_35" d="M54.1875 7.00977H52.25V8.94712H54.1875V7.00977Z" fill="#004062"/>
<path id="Vector_36" d="M57.0937 7.00977H55.1562V8.94712H57.0937V7.00977Z" fill="#004062"/>
<path id="Vector_37" d="M60 7.00977H58.0625V8.94712H60V7.00977Z" fill="#004062"/>
<path id="Vector_38" d="M62.9062 7.00977H60.9688V8.94712H62.9062V7.00977Z" fill="#004062"/>
<path id="Vector_39" d="M65.8125 7.00977H63.875V8.94712H65.8125V7.00977Z" fill="#527B99"/>
<path id="Vector_40" d="M68.7187 7.00977H66.7812V8.94712H68.7187V7.00977Z" fill="#2F6586"/>
<path id="Vector_41" d="M71.6289 7.00977H69.6914V8.94712H71.6289V7.00977Z" fill="#1C5D7E"/>
<path id="Vector_42" d="M74.5351 7.00977H72.5977V8.94712H74.5351V7.00977Z" fill="#7292AC"/>
<path id="Vector_43" d="M77.4414 7.00977H75.5039V8.94712H77.4414V7.00977Z" fill="#6386A3"/>
<path id="Vector_44" d="M80.3476 7.00977H78.4102V8.94712H80.3476V7.00977Z" fill="#004567"/>
<path id="Vector_45" d="M83.2539 7.00977H81.3164V8.94712H83.2539V7.00977Z" fill="#396B8B"/>
<path id="Vector_46" d="M86.1601 7.00977H84.2227V8.94712H86.1601V7.00977Z" fill="#004062"/>
<path id="Vector_47" d="M42.5595 9.91602H40.6221V11.8534H42.5595V9.91602Z" fill="#004062"/>
<path id="Vector_48" d="M45.4658 9.91602H43.5283V11.8534H45.4658V9.91602Z" fill="#004062"/>
<path id="Vector_49" d="M48.3759 9.91602H46.4385V11.8534H48.3759V9.91602Z" fill="#004062"/>
<path id="Vector_50" d="M51.2812 9.91602H49.3438V11.8534H51.2812V9.91602Z" fill="#004062"/>
<path id="Vector_51" d="M54.1875 9.91602H52.25V11.8534H54.1875V9.91602Z" fill="#004062"/>
<path id="Vector_52" d="M57.0937 9.91602H55.1562V11.8534H57.0937V9.91602Z" fill="#004062"/>
<path id="Vector_53" d="M60 9.91602H58.0625V11.8534H60V9.91602Z" fill="#004062"/>
<path id="Vector_54" d="M62.9062 9.91602H60.9688V11.8534H62.9062V9.91602Z" fill="#3D6D8D"/>
<path id="Vector_55" d="M65.8125 9.91602H63.875V11.8534H65.8125V9.91602Z" fill="#236081"/>
<path id="Vector_56" d="M68.7187 9.91602H66.7812V11.8534H68.7187V9.91602Z" fill="#447291"/>
<path id="Vector_57" d="M71.6289 9.91602H69.6914V11.8534H71.6289V9.91602Z" fill="#276183"/>
<path id="Vector_58" d="M74.5351 9.91602H72.5977V11.8534H74.5351V9.91602Z" fill="#356989"/>
<path id="Vector_59" d="M77.4414 9.91602H75.5039V11.8534H77.4414V9.91602Z" fill="#004A6D"/>
<path id="Vector_60" d="M80.3476 9.91602H78.4102V11.8534H80.3476V9.91602Z" fill="#005173"/>
<path id="Vector_61" d="M83.2539 9.91602H81.3164V11.8534H83.2539V9.91602Z" fill="#004A6C"/>
<path id="Vector_62" d="M86.1601 9.91602H84.2227V11.8534H86.1601V9.91602Z" fill="#557D9B"/>
<path id="Vector_63" d="M42.5595 12.8223H40.6221V14.7596H42.5595V12.8223Z" fill="#004062"/>
<path id="Vector_64" d="M45.4658 12.8223H43.5283V14.7596H45.4658V12.8223Z" fill="#004062"/>
<path id="Vector_65" d="M48.3759 12.8223H46.4385V14.7596H48.3759V12.8223Z" fill="#004062"/>
<path id="Vector_66" d="M51.2812 12.8223H49.3438V14.7596H51.2812V12.8223Z" fill="#004062"/>
<path id="Vector_67" d="M54.1875 12.8223H52.25V14.7596H54.1875V12.8223Z" fill="#004062"/>
<path id="Vector_68" d="M57.0937 12.8223H55.1562V14.7596H57.0937V12.8223Z" fill="#004062"/>
<path id="Vector_69" d="M60 12.8223H58.0625V14.7596H60V12.8223Z" fill="#004C6E"/>
<path id="Vector_70" d="M62.9062 12.8223H60.9688V14.7596H62.9062V12.8223Z" fill="#005375"/>
<path id="Vector_71" d="M65.8125 12.8223H63.875V14.7596H65.8125V12.8223Z" fill="#3D6D8D"/>
<path id="Vector_72" d="M68.7187 12.8223H66.7812V14.7596H68.7187V12.8223Z" fill="white"/>
<path id="Vector_73" d="M71.6289 12.8223H69.6914V14.7596H71.6289V12.8223Z" fill="white"/>
<path id="Vector_74" d="M74.5351 12.8223H72.5977V14.7596H74.5351V12.8223Z" fill="#4C7795"/>
<path id="Vector_75" d="M77.4414 12.8223H75.5039V14.7596H77.4414V12.8223Z" fill="#0B587A"/>
<path id="Vector_76" d="M80.3476 12.8223H78.4102V14.7596H80.3476V12.8223Z" fill="#8FA7BD"/>
<path id="Vector_77" d="M83.2539 12.8223H81.3164V14.7596H83.2539V12.8223Z" fill="#2C6485"/>
<path id="Vector_78" d="M86.1601 12.8223H84.2227V14.7596H86.1601V12.8223Z" fill="#87A1B9"/>
<path id="Vector_79" d="M42.5595 15.7275H40.6221V17.6649H42.5595V15.7275Z" fill="#004062"/>
<path id="Vector_80" d="M45.4658 15.7285H43.5283V17.6659H45.4658V15.7285Z" fill="#004062"/>
<path id="Vector_81" d="M48.3759 15.7285H46.4385V17.6659H48.3759V15.7285Z" fill="#004062"/>
<path id="Vector_82" d="M51.2812 15.7285H49.3438V17.6659H51.2812V15.7285Z" fill="#004062"/>
<path id="Vector_83" d="M54.1875 15.7285H52.25V17.6659H54.1875V15.7285Z" fill="#004062"/>
<path id="Vector_84" d="M57.0937 15.7285H55.1562V17.6659H57.0937V15.7285Z" fill="#005577"/>
<path id="Vector_85" d="M60 15.7285H58.0625V17.6659H60V15.7285Z" fill="#4E7897"/>
<path id="Vector_86" d="M62.9062 15.7285H60.9688V17.6659H62.9062V15.7285Z" fill="#145A7C"/>
<path id="Vector_87" d="M65.8125 15.7275H63.875V17.6649H65.8125V15.7275Z" fill="#155B7C"/>
<path id="Vector_88" d="M68.7187 15.7275H66.7812V17.6649H68.7187V15.7275Z" fill="white"/>
<path id="Vector_89" d="M71.6289 15.7275H69.6914V17.6649H71.6289V15.7275Z" fill="white"/>
<path id="Vector_90" d="M74.5351 15.7275H72.5977V17.6649H74.5351V15.7275Z" fill="#2D6485"/>
<path id="Vector_91" d="M77.4414 15.7275H75.5039V17.6649H77.4414V15.7275Z" fill="#005072"/>
<path id="Vector_92" d="M80.3476 15.7275H78.4102V17.6649H80.3476V15.7275Z" fill="#7594AE"/>
<path id="Vector_93" d="M83.2539 15.7275H81.3164V17.6649H83.2539V15.7275Z" fill="#D6DDE6"/>
<path id="Vector_94" d="M86.1601 15.7275H84.2227V17.6649H86.1601V15.7275Z" fill="#1B5C7E"/>
<path id="Vector_95" d="M42.5595 18.6377H40.6221V20.5751H42.5595V18.6377Z" fill="#004062"/>
<path id="Vector_96" d="M45.4658 18.6377H43.5283V20.5751H45.4658V18.6377Z" fill="#004062"/>
<path id="Vector_97" d="M48.3759 18.6377H46.4385V20.5751H48.3759V18.6377Z" fill="#004062"/>
<path id="Vector_98" d="M51.2812 18.6377H49.3438V20.5751H51.2812V18.6377Z" fill="#004062"/>
<path id="Vector_99" d="M54.1875 18.6377H52.25V20.5751H54.1875V18.6377Z" fill="#005476"/>
<path id="Vector_100" d="M57.0937 18.6377H55.1562V20.5751H57.0937V18.6377Z" fill="#1C5D7E"/>
<path id="Vector_101" d="M60 18.6377H58.0625V20.5751H60V18.6377Z" fill="#005072"/>
<path id="Vector_102" d="M62.9062 18.6377H60.9688V20.5751H62.9062V18.6377Z" fill="white"/>
<path id="Vector_103" d="M65.8125 18.6377H63.875V20.5751H65.8125V18.6377Z" fill="white"/>
<path id="Vector_104" d="M68.7187 18.6377H66.7812V20.5751H68.7187V18.6377Z" fill="white"/>
<path id="Vector_105" d="M71.6289 18.6377H69.6914V20.5751H71.6289V18.6377Z" fill="white"/>
<path id="Vector_106" d="M74.5351 18.6377H72.5977V20.5751H74.5351V18.6377Z" fill="white"/>
<path id="Vector_107" d="M77.4414 18.6377H75.5039V20.5751H77.4414V18.6377Z" fill="white"/>
<path id="Vector_108" d="M80.3476 18.6377H78.4102V20.5751H80.3476V18.6377Z" fill="#296283"/>
<path id="Vector_109" d="M83.2539 18.6377H81.3164V20.5751H83.2539V18.6377Z" fill="#356989"/>
<path id="Vector_110" d="M86.1601 18.6377H84.2227V20.5751H86.1601V18.6377Z" fill="#004F71"/>
<path id="Vector_111" d="M42.5595 21.5439H40.6221V23.4813H42.5595V21.5439Z" fill="#004062"/>
<path id="Vector_112" d="M45.4658 21.5439H43.5283V23.4813H45.4658V21.5439Z" fill="#004062"/>
<path id="Vector_113" d="M48.3759 21.5439H46.4385V23.4813H48.3759V21.5439Z" fill="#004062"/>
<path id="Vector_114" d="M51.2812 21.5439H49.3438V23.4813H51.2812V21.5439Z" fill="#205E80"/>
<path id="Vector_115" d="M54.1875 21.5439H52.25V23.4813H54.1875V21.5439Z" fill="#004D70"/>
<path id="Vector_116" d="M57.0937 21.5439H55.1562V23.4813H57.0937V21.5439Z" fill="#005577"/>
<path id="Vector_117" d="M60 21.5439H58.0625V23.4813H60V21.5439Z" fill="#3D6D8D"/>
<path id="Vector_118" d="M62.9062 21.5439H60.9688V23.4813H62.9062V21.5439Z" fill="white"/>
<path id="Vector_119" d="M65.8125 21.5439H63.875V23.4813H65.8125V21.5439Z" fill="white"/>
<path id="Vector_120" d="M68.7187 21.5439H66.7812V23.4813H68.7187V21.5439Z" fill="white"/>
<path id="Vector_121" d="M71.6289 21.5439H69.6914V23.4813H71.6289V21.5439Z" fill="white"/>
<path id="Vector_122" d="M74.5351 21.5439H72.5977V23.4813H74.5351V21.5439Z" fill="white"/>
<path id="Vector_123" d="M77.4414 21.5439H75.5039V23.4813H77.4414V21.5439Z" fill="white"/>
<path id="Vector_124" d="M80.3476 21.5439H78.4102V23.4813H80.3476V21.5439Z" fill="#00476A"/>
<path id="Vector_125" d="M83.2539 21.5439H81.3164V23.4813H83.2539V21.5439Z" fill="#075779"/>
<path id="Vector_126" d="M86.1601 21.5439H84.2227V23.4813H86.1601V21.5439Z" fill="#004062"/>
<path id="Vector_127" d="M42.5595 24.4502H40.6221V26.3876H42.5595V24.4502Z" fill="#004062"/>
<path id="Vector_128" d="M45.4658 24.4502H43.5283V26.3876H45.4658V24.4502Z" fill="#004062"/>
<path id="Vector_129" d="M48.3759 24.4502H46.4385V26.3876H48.3759V24.4502Z" fill="#678AA6"/>
<path id="Vector_130" d="M51.2812 24.4502H49.3438V26.3876H51.2812V24.4502Z" fill="#4B7695"/>
<path id="Vector_131" d="M54.1875 24.4502H52.25V26.3876H54.1875V24.4502Z" fill="#004F71"/>
<path id="Vector_132" d="M57.0937 24.4502H55.1562V26.3876H57.0937V24.4502Z" fill="#225F80"/>
<path id="Vector_133" d="M60 24.4502H58.0625V26.3876H60V24.4502Z" fill="#004C6F"/>
<path id="Vector_134" d="M62.9062 24.4502H60.9688V26.3876H62.9062V24.4502Z" fill="#00476A"/>
<path id="Vector_135" d="M65.8125 24.4502H63.875V26.3876H65.8125V24.4502Z" fill="#2A6384"/>
<path id="Vector_136" d="M68.7187 24.4502H66.7812V26.3876H68.7187V24.4502Z" fill="white"/>
<path id="Vector_137" d="M71.6289 24.4502H69.6914V26.3876H71.6289V24.4502Z" fill="white"/>
<path id="Vector_138" d="M74.5351 24.4502H72.5977V26.3876H74.5351V24.4502Z" fill="#1F5E7F"/>
<path id="Vector_139" d="M77.4414 24.4502H75.5039V26.3876H77.4414V24.4502Z" fill="#7090AB"/>
<path id="Vector_140" d="M80.3476 24.4502H78.4102V26.3876H80.3476V24.4502Z" fill="#1A5C7D"/>
<path id="Vector_141" d="M83.2539 24.4502H81.3164V26.3876H83.2539V24.4502Z" fill="#004062"/>
<path id="Vector_142" d="M86.1601 24.4502H84.2227V26.3876H86.1601V24.4502Z" fill="#004062"/>
<path id="Vector_143" d="M42.5595 27.3555H40.6221V29.2928H42.5595V27.3555Z" fill="#004062"/>
<path id="Vector_144" d="M45.4658 27.3555H43.5283V29.2928H45.4658V27.3555Z" fill="#004062"/>
<path id="Vector_145" d="M48.3759 27.3555H46.4385V29.2928H48.3759V27.3555Z" fill="#075779"/>
<path id="Vector_146" d="M51.2812 27.3555H49.3438V29.2928H51.2812V27.3555Z" fill="#005577"/>
<path id="Vector_147" d="M54.1875 27.3555H52.25V29.2928H54.1875V27.3555Z" fill="#4F7997"/>
<path id="Vector_148" d="M57.0937 27.3555H55.1562V29.2928H57.0937V27.3555Z" fill="#004C6E"/>
<path id="Vector_149" d="M60 27.3555H58.0625V29.2928H60V27.3555Z" fill="#185B7D"/>
<path id="Vector_150" d="M62.9062 27.3555H60.9688V29.2928H62.9062V27.3555Z" fill="#005274"/>
<path id="Vector_151" d="M65.8125 27.3555H63.875V29.2928H65.8125V27.3555Z" fill="#3A6B8C"/>
<path id="Vector_152" d="M68.7187 27.3555H66.7812V29.2928H68.7187V27.3555Z" fill="white"/>
<path id="Vector_153" d="M71.6289 27.3555H69.6914V29.2928H71.6289V27.3555Z" fill="white"/>
<path id="Vector_154" d="M74.5351 27.3555H72.5977V29.2928H74.5351V27.3555Z" fill="#1E5D7F"/>
<path id="Vector_155" d="M77.4414 27.3555H75.5039V29.2928H77.4414V27.3555Z" fill="#005476"/>
<path id="Vector_156" d="M80.3476 27.3555H78.4102V29.2928H80.3476V27.3555Z" fill="#004062"/>
<path id="Vector_157" d="M83.2539 27.3555H81.3164V29.2928H83.2539V27.3555Z" fill="#004062"/>
<path id="Vector_158" d="M86.1601 27.3555H84.2227V29.2928H86.1601V27.3555Z" fill="#004062"/>
<path id="Vector_159" d="M42.5595 30.2617H40.6221V32.1991H42.5595V30.2617Z" fill="#004062"/>
<path id="Vector_160" d="M45.4658 30.2617H43.5283V32.1991H45.4658V30.2617Z" fill="#004062"/>
<path id="Vector_161" d="M48.3759 30.2617H46.4385V32.1991H48.3759V30.2617Z" fill="#004062"/>
<path id="Vector_162" d="M51.2812 30.2617H49.3438V32.1991H51.2812V30.2617Z" fill="#004062"/>
<path id="Vector_163" d="M54.1875 30.2617H52.25V32.1991H54.1875V30.2617Z" fill="#005375"/>
<path id="Vector_164" d="M57.0937 30.2617H55.1562V32.1991H57.0937V30.2617Z" fill="#698BA7"/>
<path id="Vector_165" d="M60 30.2617H58.0625V32.1991H60V30.2617Z" fill="#B2C2D2"/>
<path id="Vector_166" d="M62.9062 30.2617H60.9688V32.1991H62.9062V30.2617Z" fill="#055778"/>
<path id="Vector_167" d="M65.8125 30.2617H63.875V32.1991H65.8125V30.2617Z" fill="#587F9D"/>
<path id="Vector_168" d="M68.7187 30.2617H66.7812V32.1991H68.7187V30.2617Z" fill="#3D6D8D"/>
<path id="Vector_169" d="M71.6289 30.2617H69.6914V32.1991H71.6289V30.2617Z" fill="#004C6E"/>
<path id="Vector_170" d="M74.5351 30.2617H72.5977V32.1991H74.5351V30.2617Z" fill="#225F80"/>
<path id="Vector_171" d="M77.4414 30.2617H75.5039V32.1991H77.4414V30.2617Z" fill="#004062"/>
<path id="Vector_172" d="M80.3476 30.2617H78.4102V32.1991H80.3476V30.2617Z" fill="#004062"/>
<path id="Vector_173" d="M83.2539 30.2617H81.3164V32.1991H83.2539V30.2617Z" fill="#004062"/>
<path id="Vector_174" d="M86.1601 30.2617H84.2227V32.1991H86.1601V30.2617Z" fill="#004062"/>
<path id="Vector_175" d="M42.5595 33.168H40.6221V35.1053H42.5595V33.168Z" fill="#004062"/>
<path id="Vector_176" d="M45.4658 33.168H43.5283V35.1053H45.4658V33.168Z" fill="#004062"/>
<path id="Vector_177" d="M48.3759 33.168H46.4385V35.1053H48.3759V33.168Z" fill="#004062"/>
<path id="Vector_178" d="M51.2812 33.168H49.3438V35.1053H51.2812V33.168Z" fill="#004062"/>
<path id="Vector_179" d="M54.1875 33.168H52.25V35.1053H54.1875V33.168Z" fill="#10597B"/>
<path id="Vector_180" d="M57.0937 33.168H55.1562V35.1053H57.0937V33.168Z" fill="#4D7796"/>
<path id="Vector_181" d="M60 33.168H58.0625V35.1053H60V33.168Z" fill="#3D6E8D"/>
<path id="Vector_182" d="M62.9062 33.168H60.9688V35.1053H62.9062V33.168Z" fill="#B1C1D1"/>
<path id="Vector_183" d="M65.8125 33.168H63.875V35.1053H65.8125V33.168Z" fill="#437191"/>
<path id="Vector_184" d="M68.7187 33.168H66.7812V35.1053H68.7187V33.168Z" fill="#1F5E7F"/>
<path id="Vector_185" d="M71.6289 33.168H69.6914V35.1053H71.6289V33.168Z" fill="#597F9D"/>
<path id="Vector_186" d="M74.5351 33.168H72.5977V35.1053H74.5351V33.168Z" fill="#004062"/>
<path id="Vector_187" d="M77.4414 33.168H75.5039V35.1053H77.4414V33.168Z" fill="#004062"/>
<path id="Vector_188" d="M80.3476 33.168H78.4102V35.1053H80.3476V33.168Z" fill="#004062"/>
<path id="Vector_189" d="M83.2539 33.168H81.3164V35.1053H83.2539V33.168Z" fill="#004062"/>
<path id="Vector_190" d="M86.1601 33.168H84.2227V35.1053H86.1601V33.168Z" fill="#004062"/>
<path id="Vector_191" d="M42.5595 36.0742H40.6221V38.0116H42.5595V36.0742Z" fill="#004062"/>
<path id="Vector_192" d="M45.4658 36.0742H43.5283V38.0116H45.4658V36.0742Z" fill="#004062"/>
<path id="Vector_193" d="M48.3759 36.0742H46.4385V38.0116H48.3759V36.0742Z" fill="#004062"/>
<path id="Vector_194" d="M51.2812 36.0742H49.3438V38.0116H51.2812V36.0742Z" fill="#004062"/>
<path id="Vector_195" d="M54.1875 36.0742H52.25V38.0116H54.1875V36.0742Z" fill="#004062"/>
<path id="Vector_196" d="M57.0937 36.0742H55.1562V38.0116H57.0937V36.0742Z" fill="#005274"/>
<path id="Vector_197" d="M60 36.0742H58.0625V38.0116H60V36.0742Z" fill="#004F71"/>
<path id="Vector_198" d="M62.9062 36.0742H60.9688V38.0116H62.9062V36.0742Z" fill="#005577"/>
<path id="Vector_199" d="M65.8125 36.0742H63.875V38.0116H65.8125V36.0742Z" fill="#004366"/>
<path id="Vector_200" d="M62.9062 36.0742H60.9688V38.0116H62.9062V36.0742Z" fill="#005577"/>
<path id="Vector_201" d="M65.8125 36.0742H63.875V38.0116H65.8125V36.0742Z" fill="#004366"/>
<path id="Vector_202" d="M68.7187 36.0742H66.7812V38.0116H68.7187V36.0742Z" fill="#005274"/>
<path id="Vector_203" d="M71.6289 36.0742H69.6914V38.0116H71.6289V36.0742Z" fill="#004062"/>
<path id="Vector_204" d="M74.5351 36.0742H72.5977V38.0116H74.5351V36.0742Z" fill="#004062"/>
<path id="Vector_205" d="M77.4414 36.0742H75.5039V38.0116H77.4414V36.0742Z" fill="#004062"/>
<path id="Vector_206" d="M80.3476 36.0742H78.4102V38.0116H80.3476V36.0742Z" fill="#004062"/>
<path id="Vector_207" d="M83.2539 36.0742H81.3164V38.0116H83.2539V36.0742Z" fill="#004062"/>
<path id="Vector_208" d="M86.1601 36.0742H84.2227V38.0116H86.1601V36.0742Z" fill="#004062"/>
<path id="Vector_209" d="M42.5595 38.9834H40.6221V40.9208H42.5595V38.9834Z" fill="#004062"/>
<path id="Vector_210" d="M45.4658 38.9844H43.5283V40.9217H45.4658V38.9844Z" fill="#004062"/>
<path id="Vector_211" d="M48.3759 38.9844H46.4385V40.9217H48.3759V38.9844Z" fill="#004062"/>
<path id="Vector_212" d="M51.2812 38.9844H49.3438V40.9217H51.2812V38.9844Z" fill="#004062"/>
<path id="Vector_213" d="M54.1875 38.9844H52.25V40.9217H54.1875V38.9844Z" fill="#004062"/>
<path id="Vector_214" d="M57.0937 38.9844H55.1562V40.9217H57.0937V38.9844Z" fill="#004062"/>
<path id="Vector_215" d="M60 38.9844H58.0625V40.9217H60V38.9844Z" fill="#004062"/>
<path id="Vector_216" d="M62.9062 38.9844H60.9688V40.9217H62.9062V38.9844Z" fill="#89A2BA"/>
<path id="Vector_217" d="M65.8125 38.9834H63.875V40.9208H65.8125V38.9834Z" fill="#517A99"/>
<path id="Vector_218" d="M68.7187 38.9834H66.7812V40.9208H68.7187V38.9834Z" fill="#004062"/>
<path id="Vector_219" d="M71.6289 38.9834H69.6914V40.9208H71.6289V38.9834Z" fill="#004062"/>
<path id="Vector_220" d="M74.5351 38.9834H72.5977V40.9208H74.5351V38.9834Z" fill="#004062"/>
<path id="Vector_221" d="M77.4414 38.9834H75.5039V40.9208H77.4414V38.9834Z" fill="#004062"/>
<path id="Vector_222" d="M80.3476 38.9834H78.4102V40.9208H80.3476V38.9834Z" fill="#004062"/>
<path id="Vector_223" d="M83.2539 38.9834H81.3164V40.9208H83.2539V38.9834Z" fill="#004062"/>
<path id="Vector_224" d="M86.1601 38.9834H84.2227V40.9208H86.1601V38.9834Z" fill="#004062"/>
</g>
</g>
</g>
</g>
</g>
</g>
</g>
<g id="Group_6">
<path id="Vector_225" d="M69.7344 38.7173H68.8262V38.2178H71.2783V38.7173H70.3701V41.3849H69.7344V38.7173Z" fill="#004062"/>
<path id="Vector_226" d="M71.6836 38.2176H72.7015L73.4546 40.6166H73.4621L74.2152 38.2176H75.2331V41.3848H74.6239V38.7701H74.6163L73.7649 41.3848H73.1556L72.3042 38.7701L72.2966 38.7777V41.381H71.6874V38.2139L71.6836 38.2176Z" fill="#004062"/>
</g>
</g>
<defs>
<clipPath id="clip0_1_8191">
<rect width="126" height="109.62" fill="white"/>
</clipPath>
</defs>
</svg>
