<svg width="51" height="50" viewBox="0 0 51 50" fill="none" xmlns="http://www.w3.org/2000/svg">
<path id="Subtract" fill-rule="evenodd" clip-rule="evenodd" d="M50.5 25C50.5 38.8071 39.3071 50 25.5 50C11.6929 50 0.5 38.8071 0.5 25C0.5 11.1929 11.6929 0 25.5 0C39.3071 0 50.5 11.1929 50.5 25ZM31.3593 21.8381C27.7245 21.8381 24.7676 24.795 24.7676 28.4298C24.7676 32.0647 27.7244 35.0215 31.3593 35.0215C34.9941 35.0215 37.9998 32.0647 37.9998 28.4298C37.9998 24.795 34.9942 21.8381 31.3593 21.8381ZM32.111 31.9596C32.1077 31.9608 32.1044 31.9611 32.1011 31.9614L32.0973 31.9618C32.0954 31.962 32.0935 31.9624 32.0917 31.963V32.8243C32.0917 33.2292 31.7641 33.5567 31.3592 33.5567C30.9544 33.5567 30.6268 33.2292 30.6268 32.8243V31.9581C30.1444 31.7951 29.6822 31.4858 29.2871 31.0147C29.0268 30.705 29.0668 30.243 29.3772 29.9834C29.687 29.723 30.1504 29.763 30.4086 30.0735C30.7963 30.5348 31.2348 30.7179 31.6096 30.5834C31.8978 30.4783 32.0917 30.2015 32.0917 29.8947C32.0917 29.4906 31.7633 29.1623 31.3592 29.1623C30.1476 29.1623 29.162 28.1766 29.162 26.965C29.162 26.0803 29.6884 25.2856 30.5031 24.9409C30.5248 24.9317 30.5472 24.9278 30.5696 24.9238C30.5888 24.9204 30.6081 24.917 30.6269 24.9103V24.0354C30.6269 23.6306 30.9544 23.303 31.3593 23.303C31.7641 23.303 32.0917 23.6306 32.0917 24.0354V24.9116C32.4709 25.0397 32.8408 25.2434 33.171 25.5632C33.4614 25.8443 33.4686 26.3078 33.1867 26.5989C32.9056 26.8893 32.4414 26.8957 32.151 26.6146C31.7948 26.2691 31.4007 26.1504 31.0746 26.2899C30.8028 26.405 30.6268 26.6697 30.6268 26.9651C30.6268 27.3692 30.9551 27.6975 31.3592 27.6975C32.5709 27.6975 33.5564 28.6832 33.5564 29.8947C33.5565 30.8152 32.9757 31.6449 32.111 31.9596ZM13.0002 29.8947C13.0002 29.4898 13.3278 29.1623 13.7326 29.1623H15.9298V38H13.7326C13.3278 38 13.0002 37.6725 13.0002 37.2676V29.8947ZM30.3708 17.5715L25.2439 13.177C24.9707 12.941 24.5645 12.941 24.2912 13.177L19.1644 17.5715C18.9312 17.7703 18.8475 18.0936 18.9541 18.3812C19.0599 18.6687 19.3338 18.8597 19.6407 18.8597H21.8379V38H26.9648C27.3697 38 27.6973 37.6725 27.6973 37.2676V35.597C25.0927 34.2606 23.3028 31.5531 23.3028 28.4299C23.3028 25.3067 25.0927 22.5991 27.6973 21.2627V18.8597H29.8945C30.2013 18.8597 30.4753 18.6688 30.5812 18.3812C30.6877 18.0936 30.6041 17.7703 30.3708 17.5715ZM17.4435 24.0354C17.4435 23.6306 17.771 23.303 18.1759 23.303H20.3731V38H17.4435V29.1623V24.0354Z" fill="#054569"/>
</svg>
