<svg width="51" height="50" viewBox="0 0 51 50" fill="none" xmlns="http://www.w3.org/2000/svg">
<path id="Subtract" fill-rule="evenodd" clip-rule="evenodd" d="M50.5 25C50.5 38.8071 39.3071 50 25.5 50C11.6929 50 0.5 38.8071 0.5 25C0.5 11.1929 11.6929 0 25.5 0C39.3071 0 50.5 11.1929 50.5 25ZM13.7475 22.9836C13.339 22.9836 13.0079 23.3147 13.0079 23.7231V34.5854C13.0079 34.9938 13.3391 35.3249 13.7475 35.3249H18.2032V22.9836H13.7475ZM36.7345 24.8548C37.4865 25.3057 37.991 26.1289 37.991 27.0678C37.991 28.0066 37.4865 28.8299 36.7344 29.2808C37.0225 29.6969 37.1915 30.2015 37.1915 30.7449C37.1915 31.7633 36.5979 32.6458 35.7384 33.0644C35.9838 33.4588 36.1257 33.9242 36.1257 34.422C36.1257 35.8435 34.9691 37.0001 33.5476 37.0001H27.6176C24.9003 37.0001 22.2368 36.5467 19.6844 35.6524V22.2892C21.0616 21.2496 23.2822 19.3695 24.0074 17.5786L25.4377 13.8334C25.7998 12.7521 26.4352 12.3115 26.9056 12.1323C27.5146 11.9005 28.2002 11.975 28.836 12.3423C29.8559 12.9316 30.1384 14.6453 29.725 17.7352C29.5662 18.9225 29.338 20.0568 29.1713 20.8126H34.6135C36.0351 20.8126 37.1916 21.9692 37.1916 23.3907C37.1916 23.934 37.0226 24.4387 36.7345 24.8548Z" fill="#054569"/>
</svg>
