<svg width="27" height="27" viewBox="0 0 27 27" fill="none" xmlns="http://www.w3.org/2000/svg">
<g id="fi_1828859" clip-path="url(#clip0_1_11090)">
<path id="Vector" d="M25.875 14.6016H1.125C0.503998 14.6016 0 14.0976 0 13.4766C0 12.8556 0.503998 12.3516 1.125 12.3516H25.875C26.496 12.3516 27 12.8556 27 13.4766C27 14.0976 26.496 14.6016 25.875 14.6016Z" fill="#404448"/>
<path id="Vector_2" d="M25.875 5.97656H1.125C0.503998 5.97656 0 5.47256 0 4.85156C0 4.23056 0.503998 3.72656 1.125 3.72656H25.875C26.496 3.72656 27 4.23056 27 4.85156C27 5.47256 26.496 5.97656 25.875 5.97656Z" fill="#404448"/>
<path id="Vector_3" d="M25.875 23.2266H1.125C0.503998 23.2266 0 22.7226 0 22.1016C0 21.4806 0.503998 20.9766 1.125 20.9766H25.875C26.496 20.9766 27 21.4806 27 22.1016C27 22.7226 26.496 23.2266 25.875 23.2266Z" fill="#404448"/>
</g>
<defs>
<clipPath id="clip0_1_11090">
<rect width="27" height="27" fill="white"/>
</clipPath>
</defs>
</svg>
