<svg width="51" height="50" viewBox="0 0 51 50" fill="none" xmlns="http://www.w3.org/2000/svg">
<g id="Group 11">
<path id="Subtract" fill-rule="evenodd" clip-rule="evenodd" d="M50.5 25C50.5 38.8071 39.3071 50 25.5 50C11.6929 50 0.5 38.8071 0.5 25C0.5 11.1929 11.6929 0 25.5 0C39.3071 0 50.5 11.1929 50.5 25ZM20.9482 19.373C21.3527 19.373 21.6807 19.0451 21.6807 18.6406C21.6807 18.2361 21.3527 17.9082 20.9482 17.9082C20.5437 17.9082 20.2158 18.2361 20.2158 18.6406C20.2158 19.0451 20.5437 19.373 20.9482 19.373ZM20.2158 24.5C20.2158 24.0962 20.5444 23.7676 20.9482 23.7676C21.3525 23.7676 21.6807 24.0962 21.6807 24.5C21.6807 24.9038 21.3525 25.2324 20.9482 25.2324C20.5444 25.2324 20.2158 24.9038 20.2158 24.5ZM20.2158 30.3594C20.2158 29.9556 20.5444 29.627 20.9482 29.627C21.3525 29.627 21.6807 29.9556 21.6807 30.3594C21.6807 30.7632 21.3525 31.0918 20.9482 31.0918C20.5444 31.0918 20.2158 30.7632 20.2158 30.3594ZM29.3203 30.3594C29.3203 29.9556 29.6484 29.627 30.0527 29.627C30.4565 29.627 30.7852 29.9556 30.7852 30.3594C30.7852 30.7632 30.4565 31.0918 30.0527 31.0918C29.6484 31.0918 29.3203 30.7632 29.3203 30.3594ZM29.3203 24.5C29.3203 24.0962 29.6484 23.7676 30.0527 23.7676C30.4565 23.7676 30.7852 24.0962 30.7852 24.5C30.7852 24.9038 30.4565 25.2324 30.0527 25.2324C29.6484 25.2324 29.3203 24.9038 29.3203 24.5ZM19.9209 12H31.0801C33.481 12 35.4346 13.9536 35.4346 16.3545V32.6455C35.4346 35.0464 33.481 37 31.0801 37H19.9209C17.52 37 15.5664 35.0464 15.5664 32.6455V16.3545C15.5664 13.9536 17.52 12 19.9209 12ZM18.751 30.3594C18.751 31.5708 19.7368 32.5566 20.9482 32.5566C22.1602 32.5566 23.1455 31.5708 23.1455 30.3594C23.1455 29.1479 22.1602 28.1621 20.9482 28.1621C19.7368 28.1621 18.751 29.1479 18.751 30.3594ZM18.751 24.5C18.751 25.7114 19.7368 26.6973 20.9482 26.6973C22.1602 26.6973 23.1455 25.7114 23.1455 24.5C23.1455 23.2886 22.1602 22.3027 20.9482 22.3027C19.7368 22.3027 18.751 23.2886 18.751 24.5ZM18.751 18.6406C18.751 19.8521 19.7368 20.8379 20.9482 20.8379C22.1602 20.8379 23.1455 19.8521 23.1455 18.6406C23.1455 17.4292 22.1602 16.4434 20.9482 16.4434C19.7368 16.4434 18.751 17.4292 18.751 18.6406ZM25.5005 34.0703C25.9048 34.0703 26.2329 33.7422 26.2329 33.3379V15.6621C26.2329 15.2578 25.9048 14.9297 25.5005 14.9297C25.0962 14.9297 24.7681 15.2578 24.7681 15.6621V33.3379C24.7681 33.7422 25.0962 34.0703 25.5005 34.0703ZM27.8555 30.3594C27.8555 31.5708 28.8408 32.5566 30.0527 32.5566C31.2642 32.5566 32.25 31.5708 32.25 30.3594C32.25 29.1479 31.2642 28.1621 30.0527 28.1621C28.8408 28.1621 27.8555 29.1479 27.8555 30.3594ZM27.8555 24.5C27.8555 25.7114 28.8408 26.6973 30.0527 26.6973C31.2642 26.6973 32.25 25.7114 32.25 24.5C32.25 23.2886 31.2642 22.3027 30.0527 22.3027C28.8408 22.3027 27.8555 23.2886 27.8555 24.5ZM27.8555 18.6406C27.8555 19.8521 28.8408 20.8379 30.0527 20.8379C31.2642 20.8379 32.25 19.8521 32.25 18.6406C32.25 17.4292 31.2642 16.4434 30.0527 16.4434C28.8408 16.4434 27.8555 17.4292 27.8555 18.6406ZM29.3203 18.6406C29.3203 18.2368 29.6484 17.9082 30.0527 17.9082C30.4565 17.9082 30.7852 18.2368 30.7852 18.6406C30.7852 19.0444 30.4565 19.373 30.0527 19.373C29.6484 19.373 29.3203 19.0444 29.3203 18.6406Z" fill="#054569"/>
</g>
</svg>
