<svg width="50" height="50" viewBox="0 0 50 50" fill="none" xmlns="http://www.w3.org/2000/svg">
<path id="Subtract" fill-rule="evenodd" clip-rule="evenodd" d="M50 25C50 38.8071 38.8071 50 25 50C11.1929 50 0 38.8071 0 25C0 11.1929 11.1929 0 25 0C38.8071 0 50 11.1929 50 25ZM31.5462 30.1353H28.8106V28.7537C27.6522 29.2949 26.3611 29.598 25.0004 29.598C23.6397 29.598 22.3486 29.2949 21.1902 28.7537V30.1353H18.4546C18.1567 30.1353 17.8885 30.3156 17.7761 30.5915C17.6636 30.8673 17.7294 31.1838 17.9424 31.392L24.4882 37.7912C24.6305 37.9304 24.8154 38 25.0003 38C25.1852 38 25.3702 37.9304 25.5125 37.7912L32.0583 31.392C32.2713 31.1838 32.3371 30.8674 32.2246 30.5915C32.1122 30.3157 31.844 30.1353 31.5462 30.1353ZM32.5663 20.5662C32.5663 24.7383 29.1721 28.1325 25 28.1325C20.8279 28.1325 17.4338 24.7384 17.4338 20.5663C17.4338 16.3942 20.828 13 25 13C29.1721 13 32.5663 16.3941 32.5663 20.5662ZM24.2217 16.9346C23.905 17.0148 23.6151 17.1501 23.3722 17.3359C22.8684 17.7212 22.5878 18.3008 22.5818 18.968C22.5683 20.4761 23.9121 20.9508 24.5579 21.1788C24.6362 21.2065 24.7154 21.2331 24.7949 21.2597C25.0789 21.3549 25.366 21.4511 25.6231 21.6032C25.9275 21.7832 26.0601 22.1547 25.8621 22.4721C25.727 22.6886 25.4625 22.7697 25.2215 22.7901C25.1782 22.7937 25.1348 22.7955 25.0915 22.7955L25.0845 22.7954C24.704 22.7938 24.1003 22.6148 24.1003 22.1419C24.1003 21.7372 23.7723 21.4092 23.3676 21.4092C22.9629 21.4092 22.6349 21.7372 22.6349 22.1419C22.6349 23.2151 23.4082 23.9044 24.3129 24.1548V24.7123C24.3129 25.1169 24.6409 25.445 25.0456 25.445C25.4503 25.445 25.7783 25.1169 25.7783 24.7123V24.1762C26.0949 24.0959 26.385 23.9601 26.6278 23.7744C27.1316 23.389 27.4123 22.8094 27.4183 22.1423C27.4244 21.4643 27.1225 20.8759 26.5735 20.4813C26.1751 20.1949 25.7116 20.0319 25.2517 19.8701C25.2323 19.8633 25.213 19.8565 25.1937 19.8497C25.105 19.8184 25.0165 19.787 24.9288 19.7546C24.1702 19.4743 24.0444 19.2913 24.0472 18.9811C24.0526 18.3763 24.657 18.3121 24.9155 18.3149C25.296 18.3165 25.8997 18.4955 25.8997 18.9684C25.8997 19.3731 26.2277 19.7012 26.6324 19.7012C27.0371 19.7012 27.3651 19.3731 27.3651 18.9684C27.3651 17.8952 26.5918 17.206 25.6872 16.9555V16.4204C25.6872 16.0157 25.3591 15.6876 24.9544 15.6876C24.5498 15.6876 24.2217 16.0157 24.2217 16.4204V16.9346Z" fill="#054569"/>
</svg>
