<svg width="50" height="50" viewBox="0 0 50 50" fill="none" xmlns="http://www.w3.org/2000/svg">
<path id="Subtract" fill-rule="evenodd" clip-rule="evenodd" d="M25 50C38.8071 50 50 38.8071 50 25C50 11.1929 38.8071 0 25 0C11.1929 0 0 11.1929 0 25C0 38.8071 11.1929 50 25 50ZM28.2511 13C31.0778 13 33.378 15.3491 33.378 18.1758C33.378 20.9453 31.4912 22.2885 29.1029 23.9886L29.0951 23.9942L29.0951 23.9942C28.1042 24.7003 26.9812 25.5005 25.8006 26.5221L25.3207 26.9376L24.8415 26.5214C23.7943 25.613 22.7636 24.8877 21.7673 24.1868L21.7662 24.186C19.3505 22.4862 17.2648 21.0185 17.2648 18.1758C17.2648 15.3491 19.565 13 22.3917 13C23.4932 13 24.5224 13.4713 25.3214 14.3196C26.1203 13.4713 27.1496 13 28.2511 13ZM26.0538 20.373H27.5187V18.9082H26.0538V17.4434H24.589V18.9082H23.1241V20.373H24.589V21.8379H26.0538V20.373ZM37.2667 19.6992C35.9194 19.6992 35.4733 25.3442 35.3771 26.5618C35.3666 26.6945 35.3603 26.7747 35.3574 26.7891C35.2086 27.8065 34.4919 29.3125 33.2816 30.2193L30.1092 32.5227L29.2309 31.3497L32.4033 29.047C33.66 28.1048 34.2327 26.4961 32.6621 26.4961C31.2555 26.4961 28.6261 28.1246 27.8466 28.7707C26.9158 29.5422 26.3779 30.6884 26.3779 31.8974V38H30.7725C30.7725 37.2968 31.1533 36.5302 31.7392 35.7978C32.3545 34.9921 33.2334 34.1718 34.1416 33.3369L34.1957 33.2859C35.9073 31.676 37.6645 30.0232 37.8965 28.3418C38.0356 27.2004 38.1512 25.2428 38.1455 23.4981C38.1391 21.5442 37.9736 19.7623 37.2667 19.6992ZM17.9809 26.496C18.9917 26.496 20.559 27.2138 22.6244 28.6348C23.6576 29.4138 24.2651 30.6327 24.265 31.9267V38H19.8704C19.8704 37.2968 19.4896 36.5302 18.9037 35.7978C18.2884 34.9921 17.4095 34.1718 16.5013 33.3369L16.4475 33.2862C14.7358 31.6763 12.9784 30.0233 12.7464 28.3418C12.6732 27.7412 12.5414 26.1152 12.5121 24.4453C12.4681 22.1601 12.556 19.7724 13.3763 19.6992C14.7236 19.6992 15.1696 25.3443 15.2658 26.5618C15.2763 26.6945 15.2826 26.7747 15.2855 26.7891C15.4343 27.8064 16.151 29.3125 17.3614 30.2193L20.5339 32.5227L21.4122 31.3497L18.2398 29.047C16.9831 28.1048 16.4103 26.496 17.9809 26.496Z" fill="#054569"/>
</svg>
