<svg width="1333" height="870" viewBox="0 0 1333 870" fill="none" xmlns="http://www.w3.org/2000/svg">
<g opacity="0.3" clip-path="url(#clip0_1_7929)">
<g opacity="0.3">
<path d="M1375.44 751.19L1375.44 667.235L1303.2 625.623L1230.96 667.235L1230.96 751.19L1303.2 792.802L1375.44 751.19ZM1371.79 669.425L1371.79 749L1303.2 789.152L1234.61 749L1234.61 669.425L1303.2 629.273L1371.79 669.425Z" fill="white"/>
<path d="M1118.59 309.516L1118.59 262.793L1078.46 239.432L1038.33 262.793L1038.33 309.516L1078.46 332.877L1118.59 309.516ZM1116.4 263.523L1116.4 308.055L1077.73 330.687L1039.06 308.055L1039.06 263.523L1077.73 240.892L1116.4 263.523Z" fill="white"/>
<path d="M1333.12 2.16887L1333.12 -64.9949L1275.47 -97.8467L1217.83 -64.9949L1217.83 2.16886L1275.47 35.0207L1333.12 2.16887ZM1330.2 -62.8047L1330.2 0.708783L1274.74 32.8305L1219.29 0.708778L1219.29 -62.8047L1274.74 -94.9265L1330.2 -62.8047Z" fill="white"/>
<path d="M1398.06 465.744L1398.06 355.508L1303.2 301.485L1301.74 301.485L1207.61 356.238L1207.61 466.474L1302.47 520.497L1303.93 520.497L1398.06 465.744ZM1393.68 358.429L1393.68 462.824L1303.2 515.387L1212.72 462.824L1212.72 358.429L1303.2 305.866L1393.68 358.429Z" fill="white"/>
<path d="M1471.02 72.2521L1331.66 -0.751953L1329.47 2.89823L1468.84 75.9023L1471.02 72.2521Z" fill="white"/>
<path d="M1211.26 356.968L1117.13 307.325L1115.67 310.245L1209.8 359.888L1211.26 356.968Z" fill="white"/>
<path d="M1299.55 628.544L1299.55 516.848L1303.93 516.848L1303.93 628.544L1299.55 628.544Z" fill="white"/>
<path d="M700.488 168.618L700.488 9.46895L699.028 9.46895L563.309 -70.1055L561.849 -70.1055L426.13 9.46894L426.13 168.618L427.589 168.618L564.038 248.192L565.498 248.192L701.217 168.618L700.488 168.618ZM693.921 13.1191L693.921 164.968L562.579 240.892L431.238 164.968L431.238 13.1191L562.579 -62.805L693.921 13.1191Z" fill="white"/>
<path d="M673.49 586.93L673.49 459.903L672.03 459.903L563.309 396.39L561.849 396.39L453.128 459.903L453.128 586.93L454.587 586.93L563.309 650.444L564.768 650.444L673.49 586.93ZM668.382 462.823L668.382 584.01L563.309 644.603L458.236 584.01L458.236 462.823L563.309 402.23L668.382 462.823Z" fill="white"/>
<path d="M1006.22 322.656L1006.22 188.329L1004.76 188.329L889.474 121.165L888.014 121.165L772.726 188.329L772.726 322.656L774.185 322.656L889.474 389.82L890.933 389.82L1006.22 322.656ZM1001.11 191.249L1001.11 319.736L890.203 383.98L779.293 319.736L779.293 191.249L890.203 127.005L1001.11 191.249Z" fill="white"/>
<path d="M1225.12 152.557L1225.12 74.4426L1157.99 36.4805L1090.86 74.4426L1090.86 152.557L1157.99 190.519L1225.12 152.557ZM1222.2 76.6327L1222.2 150.367L1157.99 187.599L1093.78 150.367L1093.78 76.6327L1157.99 39.4006L1222.2 76.6327Z" fill="white"/>
<path d="M950.766 579.63L950.766 504.436L885.825 467.204L820.884 504.436L820.884 579.63L885.825 616.862L950.766 579.63ZM947.847 506.626L947.847 578.17L885.825 613.942L823.802 578.17L823.802 506.626L885.825 470.854L947.847 506.626Z" fill="white"/>
<path d="M755.943 710.308L755.943 635.114L691.002 597.882L626.061 635.114L626.061 710.308L691.002 747.54L755.943 710.308ZM753.024 637.304L753.024 708.848L691.002 744.62L628.979 708.848L628.979 637.304L691.002 601.532L753.024 637.304Z" fill="white"/>
<path d="M337.109 690.596L337.109 606.642L264.872 565.029L192.634 606.642L192.634 690.596L264.872 732.209L337.109 690.596ZM333.461 608.832L333.461 688.406L264.872 728.558L196.282 688.406L196.282 608.832L264.872 568.68L333.461 608.832Z" fill="white"/>
<path d="M80.9937 248.922L80.9937 202.199L40.8616 178.838L0.729491 202.199L0.729489 248.922L40.8616 272.283L80.9937 248.922ZM78.8047 202.929L78.8047 247.462L40.1319 270.093L2.18884 247.462L2.18884 202.929L40.8616 180.298L79.5344 202.929L78.8047 202.929Z" fill="white"/>
<path d="M359.73 405.15L359.73 294.914L264.873 240.891L263.413 240.891L169.285 295.644L169.285 405.88L264.143 459.903L265.602 459.903L359.73 405.15ZM355.352 297.834L355.352 402.23L264.873 454.792L174.393 402.229L174.393 297.834L264.873 245.271L355.352 297.834Z" fill="white"/>
<path d="M432.697 11.6583L293.329 -61.3457L291.87 -57.6955L431.238 15.3085L432.697 11.6583Z" fill="white"/>
<path d="M173.663 296.375L78.8051 246.732L77.3457 249.653L172.203 299.295L173.663 296.375Z" fill="white"/>
<path d="M561.12 398.58L561.12 240.892L565.498 240.892L565.498 398.58L561.12 398.58Z" fill="white"/>
<path d="M835.477 -42.3644L834.018 -46.0146L693.19 11.6585L695.379 15.3087L835.477 -42.3644Z" fill="white"/>
<path d="M887.284 124.085L887.284 -13.1621L891.662 -13.1621L891.662 124.085L887.284 124.085Z" fill="white"/>
<path d="M1095.24 152.557L1093.78 148.907L1001.84 188.329L1004.03 191.98L1095.24 152.557Z" fill="white"/>
<path d="M458.965 461.363L358.27 401.5L356.081 405.15L456.776 464.283L458.965 461.363Z" fill="white"/>
<path d="M261.953 567.95L261.953 456.254L266.331 456.254L266.331 567.95L261.953 567.95Z" fill="white"/>
</g>
<path d="M1432.2 217.633L1430.74 217.633L1319.83 281.146L1318.37 281.146L1318.37 411.094L1429.28 475.337L1430.74 475.337L1541.65 411.824L1543.11 411.824L1543.11 281.876L1432.2 217.633ZM1430.74 469.497L1324.21 408.173L1324.21 284.796L1430.74 223.473L1537.27 284.797L1537.27 408.173L1430.74 469.497Z" fill="#2C6D37" fill-opacity="0.2"/>
<path d="M1006.07 197.921L973.235 216.902L973.235 254.864L1006.07 273.845L1038.91 254.864L1038.91 216.902L1006.07 197.921ZM1006.07 271.655L974.695 253.404L974.695 216.902L1006.07 198.651L1037.45 216.902L1037.45 253.404L1006.07 271.655Z" fill="#2C6D37" fill-opacity="0.2"/>
<path d="M1166.6 439.564L1119.17 466.576L1119.17 520.599L1165.87 547.61L1213.3 520.599L1213.3 466.576L1166.6 439.564ZM1166.6 545.42L1121.36 519.869L1121.36 468.036L1166.6 442.485L1211.11 468.036L1211.11 519.869L1166.6 545.42Z" fill="#2C6D37" fill-opacity="0.2"/>
<path d="M1319.83 568.782L1268.75 597.984L1268.75 657.117L1319.83 686.319L1370.91 657.117L1370.91 597.984L1319.83 568.782ZM1319.83 684.129L1270.94 655.657L1270.94 598.714L1319.83 570.242L1368.72 598.714L1368.72 655.657L1319.83 684.129Z" fill="#2C6D37" fill-opacity="0.2"/>
<path d="M1189.22 45.3428L1111.87 89.1452L1111.14 178.21L1187.76 222.013L1265.11 178.21L1265.83 89.1452L1189.22 45.3428ZM1188.49 219.092L1114.79 176.75L1114.79 91.3353L1188.49 48.993L1262.19 91.3353L1262.19 176.75L1188.49 219.092Z" fill="#2C6D37" fill-opacity="0.2"/>
<path d="M1324.94 409.633L1211.11 468.766L1209.65 465.846L1322.75 406.713L1324.94 409.633Z" fill="#2C6D37" fill-opacity="0.2"/>
<path d="M1113.33 178.211L1036.72 218.363L1035.99 216.173L1112.6 176.021L1113.33 178.211Z" fill="#2C6D37" fill-opacity="0.2"/>
<path d="M1346.1 43.8831L1263.64 92.0657L1262.19 89.1455L1344.64 40.9629L1346.1 43.8831Z" fill="#2C6D37" fill-opacity="0.2"/>
<path d="M1185.57 47.5338L1185.57 -42.9912L1189.22 -42.9912L1189.22 47.5338L1185.57 47.5338Z" fill="#2C6D37" fill-opacity="0.2"/>
<path d="M587.965 267.275L586.506 267.275L475.595 330.789L474.136 330.789L474.136 460.736L585.046 524.98L586.506 524.98L697.416 461.466L698.876 461.466L698.876 331.519L587.965 267.275ZM586.506 519.139L479.973 457.816L479.973 334.439L586.506 273.116L693.038 334.439L693.038 457.816L586.506 519.139Z" fill="#2C6D37" fill-opacity="0.2"/>
<path d="M587.236 -60.5127L497.486 -9.40989L496.756 94.2558L585.047 145.359L674.797 94.2558L675.526 -9.40988L587.236 -60.5127ZM586.506 140.978L501.134 91.3357L501.134 -7.21975L586.506 -56.8625L671.878 -7.21975L671.878 91.3357L586.506 140.978Z" fill="#2C6D37" fill-opacity="0.2"/>
<path d="M853.567 151.929L852.108 151.929L758.709 205.222L757.979 314.728L851.378 368.751L852.837 368.751L946.236 315.458L946.965 205.952L853.567 151.929ZM852.108 365.1L761.628 312.538L761.628 208.142L852.108 155.579L942.587 208.142L942.587 312.538L852.108 365.1Z" fill="#2C6D37" fill-opacity="0.2"/>
<path d="M1071.01 312.537L1016.29 343.929L1016.29 406.712L1070.28 438.104L1125.01 406.712L1125.01 343.929L1071.01 312.537ZM1071.01 435.184L1019.2 405.252L1019.2 345.389L1071.01 315.457L1122.82 345.389L1122.82 405.252L1071.01 435.184Z" fill="#2C6D37" fill-opacity="0.2"/>
<path d="M852.107 476.797L806.138 503.078L806.138 556.371L852.107 582.653L898.077 556.371L898.077 503.078L852.837 476.797L852.107 476.797ZM852.107 580.463L808.327 554.911L808.327 503.808L852.107 478.257L895.888 503.808L895.888 554.911L852.107 580.463Z" fill="#2C6D37" fill-opacity="0.2"/>
<path d="M849.918 -33.502L797.382 -3.57031L797.382 57.023L849.189 86.9547L901.725 57.023L901.725 -3.5703L849.918 -33.502ZM849.918 84.7646L799.571 55.563L799.571 -2.84025L849.918 -32.0419L900.266 -2.84025L900.266 55.563L849.918 84.7646Z" fill="#2C6D37" fill-opacity="0.2"/>
<path d="M344.254 -126.947L285.15 -93.3654L285.15 -25.4716L343.524 8.11019L402.628 -25.4716L402.628 -93.3654L344.254 -126.947ZM344.254 5.19004L288.069 -26.9317L288.069 -91.9053L344.254 -124.027L400.439 -91.9053L400.439 -26.9317L344.254 5.19004Z" fill="#2C6D37" fill-opacity="0.2"/>
<path d="M161.835 246.834L129 265.815L129 303.777L161.835 322.758L194.671 303.777L194.671 265.815L161.835 246.834ZM161.835 320.568L130.459 302.317L130.459 265.815L161.835 247.564L193.211 265.815L193.211 302.317L161.835 320.568Z" fill="#2C6D37" fill-opacity="0.2"/>
<path d="M321.634 488.477L274.205 515.488L274.205 569.511L320.904 596.523L368.333 569.511L368.333 515.488L321.634 488.477ZM321.634 594.332L276.394 568.051L276.394 516.218L321.634 490.667L366.144 516.218L366.144 568.051L321.634 594.332Z" fill="#2C6D37" fill-opacity="0.2"/>
<path d="M475.596 618.425L424.519 647.626L424.519 706.76L475.596 735.961L526.673 706.76L526.673 647.626L475.596 618.425ZM475.596 733.771L426.708 705.3L426.708 648.356L475.596 619.885L524.484 648.356L524.484 705.3L475.596 733.771Z" fill="#2C6D37" fill-opacity="0.2"/>
<path d="M344.254 94.9854L266.908 138.788L266.179 227.853L342.795 271.655L420.14 227.853L420.87 138.788L344.254 94.9854ZM343.524 268.735L269.827 226.393L269.827 140.978L343.524 98.6356L417.221 140.978L417.221 226.393L343.524 268.735Z" fill="#2C6D37" fill-opacity="0.2"/>
<path d="M479.973 458.545L366.873 518.408L365.414 515.488L478.514 455.625L479.973 458.545Z" fill="#2C6D37" fill-opacity="0.2"/>
<path d="M269.097 227.123L192.481 268.005L191.021 265.085L268.367 224.933L269.097 227.123Z" fill="#2C6D37" fill-opacity="0.2"/>
<path d="M584.317 271.656L584.317 143.898L587.966 143.898L587.966 271.656L584.317 271.656Z" fill="#2C6D37" fill-opacity="0.2"/>
<path d="M808.327 502.349L806.868 505.269L692.309 458.546L693.768 455.626L808.327 502.349Z" fill="#2C6D37" fill-opacity="0.2"/>
<path d="M849.918 478.987L849.918 367.291L853.566 367.291L853.566 478.987L849.918 478.987Z" fill="#2C6D37" fill-opacity="0.2"/>
<path d="M1019.2 343.929L1017.74 346.85L943.316 314.728L944.776 311.808L1019.2 343.929Z" fill="#2C6D37" fill-opacity="0.2"/>
<path d="M501.864 93.5256L419.411 141.708L417.951 138.788L499.675 90.6055L501.864 93.5256Z" fill="#2C6D37" fill-opacity="0.2"/>
<path d="M341.335 97.1754L341.335 6.65039L344.983 6.65039L344.983 97.1754L341.335 97.1754Z" fill="#2C6D37" fill-opacity="0.2"/>
</g>
<defs>
<clipPath id="clip0_1_7929">
<rect width="1139" height="1355" fill="white" transform="matrix(-4.37114e-08 1 1 4.37114e-08 0 -269)"/>
</clipPath>
</defs>
</svg>
